<svg viewBox="0 0 800 600" xmlns="http://www.w3.org/2000/svg" role="img" aria-label="Green Kitchen Brand Site">
<defs>
<radialGradient id="g-gka" cx="14%" cy="18%" r="65%">
<stop offset="0%" stop-color="#e9e4d9"/>
<stop offset="100%" stop-color="#f5f2e9"/>
</radialGradient>
<radialGradient id="g-gkb" cx="88%" cy="90%" r="55%">
<stop offset="0%" stop-color="#e6e0d3" stop-opacity="0.9"/>
<stop offset="100%" stop-color="#f5f2e9" stop-opacity="0"/>
</radialGradient>
</defs>
<rect width="800" height="600" fill="url(#g-gka)"/>
<rect width="800" height="600" fill="url(#g-gkb)"/>
<circle cx="700" cy="40" r="230" fill="none" stroke="#243b57" stroke-opacity="0.16" stroke-width="1"/>
<circle cx="30" cy="580" r="170" fill="none" stroke="#243b57" stroke-opacity="0.16" stroke-width="1"/>
<g stroke="#243b57" fill="none" stroke-linecap="round" stroke-linejoin="round">

<path d="M270 360 C270 420 320 460 400 460 C480 460 530 420 530 360" stroke-width="2.2" stroke-opacity="0.75"/>
<line x1="270" y1="360" x2="530" y2="360" stroke-width="2.2" stroke-opacity="0.75"/>
<path d="M400 320 C380 300 360 250 400 210 C440 250 420 300 400 320 Z" stroke-width="2" stroke-opacity="0.7"/>
<line x1="400" y1="320" x2="400" y2="260" stroke-width="1.4" stroke-opacity="0.55"/>
<path d="M470 300 C480 270 470 240 460 220" stroke-width="1.4" stroke-opacity="0.4"/>
<path d="M330 300 C320 270 330 240 340 220" stroke-width="1.4" stroke-opacity="0.4"/>
</g>
<text x="42" y="546" font-family="ui-monospace,SFMono-Regular,Menlo,Consolas,monospace" font-size="15" letter-spacing="3" fill="#243b57" fill-opacity="0.5">GREEN KITCHEN — WEB</text>
<line x1="42" y1="90" x2="42" y2="130" stroke="#243b57" stroke-opacity="0.35" stroke-width="1"/>
</svg>
