<svg viewBox="0 0 800 600" xmlns="http://www.w3.org/2000/svg" role="img" aria-label="mediom design studio">
<defs>
<radialGradient id="g-studioa" cx="14%" cy="18%" r="65%">
<stop offset="0%" stop-color="#e9e4d9"/>
<stop offset="100%" stop-color="#f5f2e9"/>
</radialGradient>
<radialGradient id="g-studiob" cx="88%" cy="90%" r="55%">
<stop offset="0%" stop-color="#e6e0d3" stop-opacity="0.9"/>
<stop offset="100%" stop-color="#f5f2e9" stop-opacity="0"/>
</radialGradient>
</defs>
<rect width="800" height="600" fill="url(#g-studioa)"/>
<rect width="800" height="600" fill="url(#g-studiob)"/>
<circle cx="700" cy="40" r="230" fill="none" stroke="#243b57" stroke-opacity="0.16" stroke-width="1"/>
<circle cx="30" cy="580" r="170" fill="none" stroke="#243b57" stroke-opacity="0.16" stroke-width="1"/>
<g stroke="#243b57" fill="none" stroke-linecap="round" stroke-linejoin="round">

<rect x="260" y="190" width="140" height="140" stroke-width="2" stroke-opacity="0.65"/>
<line x1="330" y1="190" x2="330" y2="330" stroke-width="1.4" stroke-opacity="0.45"/><line x1="260" y1="260" x2="400" y2="260" stroke-width="1.4" stroke-opacity="0.45"/>
<line x1="150" y1="440" x2="650" y2="440" stroke-width="2.2" stroke-opacity="0.75"/>
<path d="M520 440 C512 380 528 330 560 300" stroke-width="2" stroke-opacity="0.6"/>
<path d="M560 300 C540 280 545 250 570 235 C590 260 585 290 560 300 Z" stroke-width="1.8" stroke-opacity="0.6"/>
<path d="M560 300 C580 285 605 285 620 260 C598 250 575 262 560 300 Z" stroke-width="1.8" stroke-opacity="0.55"/>
<rect x="500" y="440" width="70" height="26" stroke-width="1.8" stroke-opacity="0.55"/>
<line x1="220" y1="440" x2="220" y2="370" stroke-width="2" stroke-opacity="0.6"/>
<path d="M195 370 L245 370 L235 330 L205 330 Z" stroke-width="1.8" stroke-opacity="0.55"/>
</g>
<text x="42" y="546" font-family="ui-monospace,SFMono-Regular,Menlo,Consolas,monospace" font-size="15" letter-spacing="3" fill="#243b57" fill-opacity="0.5">STUDIO</text>
<line x1="42" y1="90" x2="42" y2="130" stroke="#243b57" stroke-opacity="0.35" stroke-width="1"/>
</svg>
